<svg width="1100" height="700" viewBox="0 0 1100 700" fill="none" xmlns="http://www.w3.org/2000/svg">
  <defs>
    <linearGradient id="bg" x1="80" y1="50" x2="1030" y2="650" gradientUnits="userSpaceOnUse">
      <stop offset="0" stop-color="#08101A"/>
      <stop offset="0.5" stop-color="#0A1320"/>
      <stop offset="1" stop-color="#060B12"/>
    </linearGradient>
    <radialGradient id="coreGlow" cx="0" cy="0" r="1" gradientUnits="userSpaceOnUse" gradientTransform="translate(563 330) rotate(90) scale(250 430)">
      <stop offset="0" stop-color="#122033" stop-opacity="0.9"/>
      <stop offset="1" stop-color="#08101A" stop-opacity="0"/>
    </radialGradient>
    <linearGradient id="water" x1="0" y1="0" x2="1" y2="1">
      <stop offset="0" stop-color="#0A1220"/>
      <stop offset="1" stop-color="#050A11"/>
    </linearGradient>
    <linearGradient id="arterial" x1="0" y1="0" x2="1" y2="1">
      <stop offset="0" stop-color="#2A3544"/>
      <stop offset="1" stop-color="#3B495B"/>
    </linearGradient>
    <pattern id="minorGrid" width="92" height="92" patternUnits="userSpaceOnUse">
      <path d="M0 0H92V92" stroke="#121B29" stroke-width="1"/>
      <path d="M46 0V92M0 46H92" stroke="#0F1825" stroke-width="1"/>
      <path d="M23 0V92M69 0V92M0 23H92M0 69H92" stroke="#0C141F" stroke-width="1"/>
    </pattern>
    <filter id="softShadow" x="-20%" y="-20%" width="140%" height="140%">
      <feDropShadow dx="0" dy="8" stdDeviation="10" flood-color="#000000" flood-opacity="0.35"/>
    </filter>
  </defs>

  <rect width="1100" height="700" fill="url(#bg)"/>
  <rect width="1100" height="700" fill="url(#minorGrid)" opacity="0.55"/>
  <rect width="1100" height="700" fill="url(#coreGlow)"/>

  <path d="M0 0H220L264 66L250 136L180 168L76 154L0 118V0Z" fill="url(#water)" opacity="0.9"/>
  <path d="M882 0H1100V166L1028 192L924 174L864 120L882 0Z" fill="url(#water)" opacity="0.9"/>
  <path d="M0 520L72 468L164 470L220 526L210 610L160 672L0 700V520Z" fill="url(#water)" opacity="0.85"/>
  <path d="M824 494L914 454L1024 470L1100 540V700H894L830 642L812 566L824 494Z" fill="url(#water)" opacity="0.8"/>

  <g opacity="0.36">
    <rect x="86" y="232" width="112" height="64" rx="10" fill="#0F1825" stroke="#172233"/>
    <rect x="216" y="212" width="96" height="88" rx="10" fill="#0F1825" stroke="#172233"/>
    <rect x="342" y="166" width="122" height="94" rx="10" fill="#0F1825" stroke="#172233"/>
    <rect x="486" y="140" width="148" height="118" rx="12" fill="#111B29" stroke="#1A2738"/>
    <rect x="666" y="150" width="96" height="72" rx="10" fill="#0F1825" stroke="#172233"/>
    <rect x="786" y="188" width="138" height="96" rx="10" fill="#101A27" stroke="#182536"/>
    <rect x="862" y="334" width="138" height="86" rx="10" fill="#0F1825" stroke="#172233"/>
    <rect x="710" y="384" width="128" height="104" rx="10" fill="#101A27" stroke="#182536"/>
    <rect x="548" y="428" width="134" height="108" rx="10" fill="#101A27" stroke="#182536"/>
    <rect x="362" y="420" width="140" height="116" rx="10" fill="#101A27" stroke="#182536"/>
    <rect x="184" y="392" width="128" height="88" rx="10" fill="#0F1825" stroke="#172233"/>
    <rect x="144" y="514" width="180" height="86" rx="10" fill="#101A27" stroke="#182536"/>
    <rect x="374" y="566" width="162" height="72" rx="10" fill="#101A27" stroke="#182536"/>
    <rect x="612" y="576" width="172" height="70" rx="10" fill="#101A27" stroke="#182536"/>
  </g>

  <g filter="url(#softShadow)">
    <path d="M48 378C120 336 212 314 320 304C420 296 488 282 562 236C642 188 736 96 882 62" stroke="#263240" stroke-width="38" stroke-linecap="round"/>
    <path d="M118 618C242 566 332 502 438 420C536 344 654 274 802 228C914 194 988 168 1052 122" stroke="#263240" stroke-width="36" stroke-linecap="round"/>
    <path d="M130 86C214 150 282 234 350 334C402 412 462 488 556 574C620 632 718 666 838 678" stroke="#283444" stroke-width="34" stroke-linecap="round"/>
    <path d="M628 62C602 144 582 210 574 298C568 386 570 450 600 634" stroke="#273241" stroke-width="30" stroke-linecap="round"/>
    <path d="M230 142C336 174 438 202 544 214C646 226 776 230 934 262" stroke="#25303E" stroke-width="24" stroke-linecap="round"/>
    <path d="M220 500C338 466 432 450 532 450C652 450 746 468 900 522" stroke="#25303E" stroke-width="24" stroke-linecap="round"/>
  </g>

  <g opacity="0.9">
    <path d="M48 378C120 336 212 314 320 304C420 296 488 282 562 236C642 188 736 96 882 62" stroke="url(#arterial)" stroke-width="22" stroke-linecap="round"/>
    <path d="M118 618C242 566 332 502 438 420C536 344 654 274 802 228C914 194 988 168 1052 122" stroke="url(#arterial)" stroke-width="20" stroke-linecap="round"/>
    <path d="M130 86C214 150 282 234 350 334C402 412 462 488 556 574C620 632 718 666 838 678" stroke="url(#arterial)" stroke-width="18" stroke-linecap="round"/>
    <path d="M628 62C602 144 582 210 574 298C568 386 570 450 600 634" stroke="url(#arterial)" stroke-width="17" stroke-linecap="round"/>
    <path d="M230 142C336 174 438 202 544 214C646 226 776 230 934 262" stroke="#334356" stroke-width="11" stroke-linecap="round"/>
    <path d="M220 500C338 466 432 450 532 450C652 450 746 468 900 522" stroke="#334356" stroke-width="11" stroke-linecap="round"/>
  </g>

  <g opacity="0.55">
    <path d="M214 110V614" stroke="#25303E" stroke-width="8" stroke-linecap="round"/>
    <path d="M312 100V624" stroke="#25303E" stroke-width="8" stroke-linecap="round"/>
    <path d="M416 88V642" stroke="#25303E" stroke-width="8" stroke-linecap="round"/>
    <path d="M728 110V604" stroke="#25303E" stroke-width="8" stroke-linecap="round"/>
    <path d="M834 126V580" stroke="#25303E" stroke-width="8" stroke-linecap="round"/>
    <path d="M144 214H944" stroke="#25303E" stroke-width="8" stroke-linecap="round"/>
    <path d="M104 336H1022" stroke="#25303E" stroke-width="8" stroke-linecap="round"/>
    <path d="M94 458H980" stroke="#25303E" stroke-width="8" stroke-linecap="round"/>
    <path d="M166 576H876" stroke="#25303E" stroke-width="8" stroke-linecap="round"/>
  </g>

  <g opacity="0.18">
    <rect x="680" y="92" width="116" height="46" rx="18" fill="#183023"/>
    <rect x="882" y="462" width="96" height="40" rx="18" fill="#183023"/>
    <rect x="78" y="180" width="92" height="36" rx="18" fill="#183023"/>
    <rect x="310" y="592" width="108" height="40" rx="18" fill="#183023"/>
  </g>

  <g opacity="0.16" fill="#DDEAF8" font-family="DM Sans, sans-serif" font-size="18" letter-spacing="4">
    <text x="470" y="304">MERKEZ</text>
    <text x="720" y="104">KUZEY</text>
    <text x="126" y="534">LIMAN</text>
    <text x="836" y="612">SANAYI</text>
  </g>
</svg>
